# xmcd CD database file
#
# Track frame offsets:
#	150
#	15711
#	29046
#	39242
#	53015
#	66662
#	80023
#	90161
#	100763
#	116604
#	129375
#	138930
#	151032
#	163901
#	176794
#	190345
#	204850
#
# Disc length: 2903 seconds
#
# Revision: 0
# Processed by: cddbd v1.5.2PL0 Copyright (c) Steve Scherf et al.
# Submitted via: CD2WAV32(JP) R3.22
#
DISCID=de0b5511
DTITLE=美空ひばり - 民謡うた紀行
DYEAR=2017
DGENRE=Country
TTITLE0=島原の子守唄
TTITLE1=稗搗節
TTITLE2=五木の子守唄
TTITLE3=中国地方の子守唄
TTITLE4=相馬盆唄
TTITLE5=三階節
TTITLE6=斉太郎節(大漁唄い込み)
TTITLE7=久保田節
TTITLE8=相川音頭
TTITLE9=佐渡おけさ
TTITLE10=常盤炭坑節
TTITLE11=串本節
TTITLE12=田原節
TTITLE13=木曽節
TTITLE14=伊那節
TTITLE15=ちゃっきり節
TTITLE16=会津磐梯山
EXTD=
EXTT0=
EXTT1=
EXTT2=
EXTT3=
EXTT4=
EXTT5=
EXTT6=
EXTT7=
EXTT8=
EXTT9=
EXTT10=
EXTT11=
EXTT12=
EXTT13=
EXTT14=
EXTT15=
EXTT16=
PLAYORDER=
